<mxfile host="app.diagrams.net" agent="Mozilla/5.0 (Windows NT 10.0; Win64; x64) AppleWebKit/537.36 (KHTML, like Gecko) Chrome/130.0.0.0 Safari/537.36" version="24.8.4">
  <diagram name="Page-1" id="uEIkQuiURJCOWDTAMDS_">
    <mxGraphModel dx="2333" dy="1238" grid="1" gridSize="10" guides="1" tooltips="1" connect="1" arrows="1" fold="1" page="1" pageScale="1" pageWidth="850" pageHeight="1100" math="0" shadow="0">
      <root>
        <mxCell id="0" />
        <mxCell id="1" parent="0" />
        <mxCell id="ej8Uj_g8A6SHDgE5CFZq-75" style="edgeStyle=orthogonalEdgeStyle;rounded=0;orthogonalLoop=1;jettySize=auto;html=1;entryX=0;entryY=0.5;entryDx=0;entryDy=0;exitX=0.5;exitY=1;exitDx=0;exitDy=0;" parent="1" source="ej8Uj_g8A6SHDgE5CFZq-66" target="ej8Uj_g8A6SHDgE5CFZq-11" edge="1">
          <mxGeometry relative="1" as="geometry">
            <Array as="points">
              <mxPoint x="200" y="1610" />
            </Array>
            <mxPoint x="220" y="310" as="sourcePoint" />
          </mxGeometry>
        </mxCell>
        <mxCell id="ej8Uj_g8A6SHDgE5CFZq-100" style="edgeStyle=orthogonalEdgeStyle;rounded=0;orthogonalLoop=1;jettySize=auto;html=1;entryX=0.5;entryY=0;entryDx=0;entryDy=0;" parent="1" source="ej8Uj_g8A6SHDgE5CFZq-95" target="ej8Uj_g8A6SHDgE5CFZq-76" edge="1">
          <mxGeometry relative="1" as="geometry" />
        </mxCell>
        <mxCell id="ej8Uj_g8A6SHDgE5CFZq-84" value="Mendapatkan kode kelas / url undangan" style="rounded=0;whiteSpace=wrap;html=1;" parent="1" vertex="1">
          <mxGeometry x="110" y="920" width="180" height="40" as="geometry" />
        </mxCell>
        <mxCell id="ej8Uj_g8A6SHDgE5CFZq-81" style="edgeStyle=orthogonalEdgeStyle;rounded=0;orthogonalLoop=1;jettySize=auto;html=1;entryX=0.5;entryY=0;entryDx=0;entryDy=0;" parent="1" source="ej8Uj_g8A6SHDgE5CFZq-63" target="ej8Uj_g8A6SHDgE5CFZq-84" edge="1">
          <mxGeometry relative="1" as="geometry" />
        </mxCell>
        <mxCell id="ej8Uj_g8A6SHDgE5CFZq-66" value="Membuka Aplikasi" style="rounded=0;whiteSpace=wrap;html=1;" parent="1" vertex="1">
          <mxGeometry x="110" y="980" width="180" height="40" as="geometry" />
        </mxCell>
        <mxCell id="ej8Uj_g8A6SHDgE5CFZq-63" value="" style="ellipse;whiteSpace=wrap;html=1;aspect=fixed;fillColor=#dae8fc;strokeColor=#6c8ebf;" parent="1" vertex="1">
          <mxGeometry x="190" y="880" width="20" height="20" as="geometry" />
        </mxCell>
        <mxCell id="ej8Uj_g8A6SHDgE5CFZq-94" style="edgeStyle=orthogonalEdgeStyle;rounded=0;orthogonalLoop=1;jettySize=auto;html=1;entryX=0.5;entryY=0;entryDx=0;entryDy=0;" parent="1" source="ej8Uj_g8A6SHDgE5CFZq-84" target="ej8Uj_g8A6SHDgE5CFZq-66" edge="1">
          <mxGeometry relative="1" as="geometry" />
        </mxCell>
        <mxCell id="3fFahJsbEP7xA9LLXeHb-3" style="edgeStyle=orthogonalEdgeStyle;rounded=0;orthogonalLoop=1;jettySize=auto;html=1;entryX=1;entryY=0.5;entryDx=0;entryDy=0;" edge="1" parent="1" source="ej8Uj_g8A6SHDgE5CFZq-72" target="ej8Uj_g8A6SHDgE5CFZq-79">
          <mxGeometry relative="1" as="geometry" />
        </mxCell>
        <mxCell id="ej8Uj_g8A6SHDgE5CFZq-72" value="Membuka Aplikasi" style="rounded=0;whiteSpace=wrap;html=1;" parent="1" vertex="1">
          <mxGeometry x="690" y="920" width="180" height="40" as="geometry" />
        </mxCell>
        <mxCell id="ej8Uj_g8A6SHDgE5CFZq-69" value="" style="ellipse;whiteSpace=wrap;html=1;aspect=fixed;fillColor=#f8cecc;strokeColor=#b85450;" parent="1" vertex="1">
          <mxGeometry x="770" y="880" width="20" height="20" as="geometry" />
        </mxCell>
        <mxCell id="ej8Uj_g8A6SHDgE5CFZq-68" value="" style="edgeStyle=orthogonalEdgeStyle;rounded=0;orthogonalLoop=1;jettySize=auto;html=1;entryX=0.5;entryY=0;entryDx=0;entryDy=0;" parent="1" source="ej8Uj_g8A6SHDgE5CFZq-69" target="ej8Uj_g8A6SHDgE5CFZq-72" edge="1">
          <mxGeometry relative="1" as="geometry">
            <mxPoint x="860" y="140" as="targetPoint" />
          </mxGeometry>
        </mxCell>
        <mxCell id="ej8Uj_g8A6SHDgE5CFZq-79" value="Daftar / Login akun untuk data setiap pengguna aplikasi&amp;nbsp;" style="rounded=0;whiteSpace=wrap;html=1;" parent="1" vertex="1">
          <mxGeometry x="385" y="920" width="180" height="40" as="geometry" />
        </mxCell>
        <mxCell id="ej8Uj_g8A6SHDgE5CFZq-3" value="Membuat exam class&lt;div&gt;(sebagai admin exam class)&lt;/div&gt;" style="rounded=0;whiteSpace=wrap;html=1;" parent="1" vertex="1">
          <mxGeometry x="385" y="980" width="180" height="40" as="geometry" />
        </mxCell>
        <mxCell id="3fFahJsbEP7xA9LLXeHb-5" style="edgeStyle=orthogonalEdgeStyle;rounded=0;orthogonalLoop=1;jettySize=auto;html=1;entryX=1;entryY=0.5;entryDx=0;entryDy=0;" edge="1" parent="1" source="ej8Uj_g8A6SHDgE5CFZq-82" target="ej8Uj_g8A6SHDgE5CFZq-84">
          <mxGeometry relative="1" as="geometry" />
        </mxCell>
        <mxCell id="ej8Uj_g8A6SHDgE5CFZq-82" value="Mengundang para siswa untuk join menggunakan kode kelas / url" style="rounded=0;whiteSpace=wrap;html=1;" parent="1" vertex="1">
          <mxGeometry x="385" y="1040" width="180" height="40" as="geometry" />
        </mxCell>
        <mxCell id="ej8Uj_g8A6SHDgE5CFZq-83" value="Membuat sesi exam (1 sesi 1 matpel) serta menambahkan soal soal ulangan&amp;nbsp;" style="rounded=0;whiteSpace=wrap;html=1;" parent="1" vertex="1">
          <mxGeometry x="385" y="1100" width="180" height="40" as="geometry" />
        </mxCell>
        <mxCell id="ej8Uj_g8A6SHDgE5CFZq-9" value="&lt;font style=&quot;font-size: 12px;&quot;&gt;Setting jadwal ulangan seperti waktu dimulai, waktu selesai pengerjaan, serta berapa lama pengerjaan&lt;/font&gt;" style="rounded=0;whiteSpace=wrap;html=1;" parent="1" vertex="1">
          <mxGeometry x="385" y="1160" width="180" height="60" as="geometry" />
        </mxCell>
        <mxCell id="ej8Uj_g8A6SHDgE5CFZq-90" value="&lt;font style=&quot;font-size: 12px;&quot;&gt;Membuat peraturan pengerjaan untuk siswa&lt;/font&gt;" style="rounded=0;whiteSpace=wrap;html=1;" parent="1" vertex="1">
          <mxGeometry x="385" y="1240" width="180" height="40" as="geometry" />
        </mxCell>
        <mxCell id="ej8Uj_g8A6SHDgE5CFZq-46" value="Akses data history performa hasil pengerjaan soal siswa" style="rounded=0;whiteSpace=wrap;html=1;" parent="1" vertex="1">
          <mxGeometry x="385" y="1300" width="180" height="40" as="geometry" />
        </mxCell>
        <mxCell id="ej8Uj_g8A6SHDgE5CFZq-50" value="" style="rhombus;whiteSpace=wrap;html=1;" parent="1" vertex="1">
          <mxGeometry x="455" y="1360" width="40" height="40" as="geometry" />
        </mxCell>
        <mxCell id="ej8Uj_g8A6SHDgE5CFZq-47" value="&lt;div style=&quot;font-size: 11px;&quot;&gt;Tidak ada nya data&lt;/div&gt;" style="text;html=1;align=center;verticalAlign=middle;whiteSpace=wrap;rounded=0;" parent="1" vertex="1">
          <mxGeometry x="422.5" y="1390" width="105" height="30" as="geometry" />
        </mxCell>
        <mxCell id="ej8Uj_g8A6SHDgE5CFZq-48" style="edgeStyle=orthogonalEdgeStyle;rounded=0;orthogonalLoop=1;jettySize=auto;html=1;entryX=0.5;entryY=0;entryDx=0;entryDy=0;" parent="1" source="ej8Uj_g8A6SHDgE5CFZq-50" edge="1">
          <mxGeometry relative="1" as="geometry">
            <mxPoint x="610" y="1420" as="targetPoint" />
          </mxGeometry>
        </mxCell>
        <mxCell id="ej8Uj_g8A6SHDgE5CFZq-49" value="No" style="edgeLabel;html=1;align=center;verticalAlign=middle;resizable=0;points=[];" parent="ej8Uj_g8A6SHDgE5CFZq-48" vertex="1" connectable="0">
          <mxGeometry x="-0.071" y="-1" relative="1" as="geometry">
            <mxPoint as="offset" />
          </mxGeometry>
        </mxCell>
        <mxCell id="ej8Uj_g8A6SHDgE5CFZq-53" value="" style="edgeStyle=orthogonalEdgeStyle;rounded=0;orthogonalLoop=1;jettySize=auto;html=1;entryX=0.5;entryY=0;entryDx=0;entryDy=0;" parent="1" source="ej8Uj_g8A6SHDgE5CFZq-50" target="ej8Uj_g8A6SHDgE5CFZq-55" edge="1">
          <mxGeometry relative="1" as="geometry">
            <mxPoint x="552.5" y="1720.3809175037202" as="targetPoint" />
            <mxPoint x="662.5" y="1590" as="sourcePoint" />
            <Array as="points" />
          </mxGeometry>
        </mxCell>
        <mxCell id="ej8Uj_g8A6SHDgE5CFZq-54" value="Yes" style="edgeLabel;html=1;align=center;verticalAlign=middle;resizable=0;points=[];" parent="ej8Uj_g8A6SHDgE5CFZq-53" vertex="1" connectable="0">
          <mxGeometry x="-0.5004" y="-2" relative="1" as="geometry">
            <mxPoint as="offset" />
          </mxGeometry>
        </mxCell>
        <mxCell id="ej8Uj_g8A6SHDgE5CFZq-55" value="Data empty, masih belum ada siswa yang pernah mengerjakan Soal" style="rounded=0;whiteSpace=wrap;html=1;" parent="1" vertex="1">
          <mxGeometry x="260" y="1420" width="150" height="60" as="geometry" />
        </mxCell>
        <mxCell id="ej8Uj_g8A6SHDgE5CFZq-52" value="Menampilkan, merekap, serta menyimpan ke penyimpanan local jika dibutuhkan" style="rounded=0;whiteSpace=wrap;html=1;" parent="1" vertex="1">
          <mxGeometry x="532.5" y="1420" width="150" height="60" as="geometry" />
        </mxCell>
        <mxCell id="ej8Uj_g8A6SHDgE5CFZq-59" value="" style="ellipse;whiteSpace=wrap;html=1;aspect=fixed;strokeColor=default;fillColor=#000000;" parent="1" vertex="1">
          <mxGeometry x="327.5" y="1515" width="10" height="10" as="geometry" />
        </mxCell>
        <mxCell id="ej8Uj_g8A6SHDgE5CFZq-58" value="" style="ellipse;whiteSpace=wrap;html=1;aspect=fixed;" parent="1" vertex="1">
          <mxGeometry x="325" y="1510" width="20" height="20" as="geometry" />
        </mxCell>
        <mxCell id="ej8Uj_g8A6SHDgE5CFZq-28" value="" style="ellipse;whiteSpace=wrap;html=1;aspect=fixed;" parent="1" vertex="1">
          <mxGeometry x="597.5" y="1510" width="20" height="20" as="geometry" />
        </mxCell>
        <mxCell id="ej8Uj_g8A6SHDgE5CFZq-29" value="" style="ellipse;whiteSpace=wrap;html=1;aspect=fixed;strokeColor=#b85450;fillColor=#f8cecc;" parent="1" vertex="1">
          <mxGeometry x="602.5" y="1515" width="10" height="10" as="geometry" />
        </mxCell>
        <mxCell id="ej8Uj_g8A6SHDgE5CFZq-11" value="Daftar / Login akun untuk data setiap pengguna aplikasi&amp;nbsp;" style="rounded=0;whiteSpace=wrap;html=1;" parent="1" vertex="1">
          <mxGeometry x="385" y="1590" width="180" height="40" as="geometry" />
        </mxCell>
        <mxCell id="ej8Uj_g8A6SHDgE5CFZq-96" value="Join exam class menggunakan kode kelas / url" style="rounded=0;whiteSpace=wrap;html=1;" parent="1" vertex="1">
          <mxGeometry x="385" y="1650" width="180" height="40" as="geometry" />
        </mxCell>
        <mxCell id="ej8Uj_g8A6SHDgE5CFZq-13" value="Membaca peraturan pengerjaan soal" style="rounded=0;whiteSpace=wrap;html=1;" parent="1" vertex="1">
          <mxGeometry x="385" y="1710" width="180" height="40" as="geometry" />
        </mxCell>
        <mxCell id="ej8Uj_g8A6SHDgE5CFZq-15" value="Memilih mata pelajaran yang sesuai dengan jadwal yang ditentukan&amp;nbsp;" style="rounded=0;whiteSpace=wrap;html=1;" parent="1" vertex="1">
          <mxGeometry x="385" y="1770" width="180" height="40" as="geometry" />
        </mxCell>
        <mxCell id="ej8Uj_g8A6SHDgE5CFZq-33" value="Mengerjakan soal" style="rounded=0;whiteSpace=wrap;html=1;" parent="1" vertex="1">
          <mxGeometry x="385" y="1890" width="180" height="40" as="geometry" />
        </mxCell>
        <mxCell id="ej8Uj_g8A6SHDgE5CFZq-31" value="Akses camera untuk deteksi emosi" style="rounded=0;whiteSpace=wrap;html=1;" parent="1" vertex="1">
          <mxGeometry x="385" y="1830" width="180" height="40" as="geometry" />
        </mxCell>
        <mxCell id="ej8Uj_g8A6SHDgE5CFZq-38" value="" style="rhombus;whiteSpace=wrap;html=1;" parent="1" vertex="1">
          <mxGeometry x="455" y="1950" width="40" height="40" as="geometry" />
        </mxCell>
        <mxCell id="ej8Uj_g8A6SHDgE5CFZq-39" value="&lt;div style=&quot;font-size: 11px;&quot;&gt;&lt;span style=&quot;background-color: initial;&quot;&gt;&lt;font style=&quot;font-size: 11px;&quot;&gt;Emosi positif&lt;/font&gt;&lt;/span&gt;&lt;/div&gt;" style="text;html=1;align=center;verticalAlign=middle;whiteSpace=wrap;rounded=0;" parent="1" vertex="1">
          <mxGeometry x="422.5" y="1990" width="105" height="30" as="geometry" />
        </mxCell>
        <mxCell id="ej8Uj_g8A6SHDgE5CFZq-36" style="edgeStyle=orthogonalEdgeStyle;rounded=0;orthogonalLoop=1;jettySize=auto;html=1;entryX=0.5;entryY=0;entryDx=0;entryDy=0;" parent="1" source="ej8Uj_g8A6SHDgE5CFZq-38" target="ej8Uj_g8A6SHDgE5CFZq-43" edge="1">
          <mxGeometry relative="1" as="geometry">
            <Array as="points">
              <mxPoint x="610" y="1960" />
            </Array>
          </mxGeometry>
        </mxCell>
        <mxCell id="ej8Uj_g8A6SHDgE5CFZq-37" value="Yes" style="edgeLabel;html=1;align=center;verticalAlign=middle;resizable=0;points=[];" parent="ej8Uj_g8A6SHDgE5CFZq-36" vertex="1" connectable="0">
          <mxGeometry x="-0.0815" relative="1" as="geometry">
            <mxPoint as="offset" />
          </mxGeometry>
        </mxCell>
        <mxCell id="ej8Uj_g8A6SHDgE5CFZq-34" style="edgeStyle=orthogonalEdgeStyle;rounded=0;orthogonalLoop=1;jettySize=auto;html=1;entryX=0.5;entryY=0;entryDx=0;entryDy=0;" parent="1" source="ej8Uj_g8A6SHDgE5CFZq-38" target="ej8Uj_g8A6SHDgE5CFZq-41" edge="1">
          <mxGeometry relative="1" as="geometry">
            <Array as="points">
              <mxPoint x="335" y="1960" />
            </Array>
          </mxGeometry>
        </mxCell>
        <mxCell id="ej8Uj_g8A6SHDgE5CFZq-35" value="No" style="edgeLabel;html=1;align=center;verticalAlign=middle;resizable=0;points=[];" parent="ej8Uj_g8A6SHDgE5CFZq-34" vertex="1" connectable="0">
          <mxGeometry x="-0.0862" y="-1" relative="1" as="geometry">
            <mxPoint as="offset" />
          </mxGeometry>
        </mxCell>
        <mxCell id="ej8Uj_g8A6SHDgE5CFZq-41" value="Lanjut soal berikutnya dengan materi yang berbeda" style="rounded=0;whiteSpace=wrap;html=1;" parent="1" vertex="1">
          <mxGeometry x="260" y="2010" width="150" height="60" as="geometry" />
        </mxCell>
        <mxCell id="ej8Uj_g8A6SHDgE5CFZq-43" value="Lanjut soal berikutnya dengan materi yang sama" style="rounded=0;whiteSpace=wrap;html=1;" parent="1" vertex="1">
          <mxGeometry x="535" y="2010" width="150" height="60" as="geometry" />
        </mxCell>
        <mxCell id="ej8Uj_g8A6SHDgE5CFZq-44" value="Pengerjaan selesai ditampilkan visualisasi tingkat emosi yang teridentifikasi untuk setiap soal" style="rounded=0;whiteSpace=wrap;html=1;" parent="1" vertex="1">
          <mxGeometry x="385" y="2090" width="180" height="40" as="geometry" />
        </mxCell>
        <mxCell id="ej8Uj_g8A6SHDgE5CFZq-95" value="Data kinerja tingkat emosi pengerjaan setiap soal disimpan di penyimpanan cloud aplikasi" style="rounded=0;whiteSpace=wrap;html=1;" parent="1" vertex="1">
          <mxGeometry x="385" y="2150" width="180" height="40" as="geometry" />
        </mxCell>
        <mxCell id="ej8Uj_g8A6SHDgE5CFZq-80" style="edgeStyle=orthogonalEdgeStyle;rounded=0;orthogonalLoop=1;jettySize=auto;html=1;" parent="1" source="ej8Uj_g8A6SHDgE5CFZq-79" target="ej8Uj_g8A6SHDgE5CFZq-3" edge="1">
          <mxGeometry relative="1" as="geometry" />
        </mxCell>
        <mxCell id="ej8Uj_g8A6SHDgE5CFZq-77" value="" style="ellipse;whiteSpace=wrap;html=1;aspect=fixed;strokeColor=default;fillColor=#000000;" parent="1" vertex="1">
          <mxGeometry x="470" y="2215" width="10" height="10" as="geometry" />
        </mxCell>
        <mxCell id="ej8Uj_g8A6SHDgE5CFZq-2" style="edgeStyle=orthogonalEdgeStyle;rounded=0;orthogonalLoop=1;jettySize=auto;html=1;entryX=0.5;entryY=0;entryDx=0;entryDy=0;" parent="1" source="ej8Uj_g8A6SHDgE5CFZq-3" target="ej8Uj_g8A6SHDgE5CFZq-82" edge="1">
          <mxGeometry relative="1" as="geometry">
            <mxPoint x="460" y="260" as="targetPoint" />
          </mxGeometry>
        </mxCell>
        <mxCell id="ej8Uj_g8A6SHDgE5CFZq-76" value="" style="ellipse;whiteSpace=wrap;html=1;aspect=fixed;" parent="1" vertex="1">
          <mxGeometry x="465" y="2210" width="20" height="20" as="geometry" />
        </mxCell>
        <mxCell id="ej8Uj_g8A6SHDgE5CFZq-86" style="edgeStyle=orthogonalEdgeStyle;rounded=0;orthogonalLoop=1;jettySize=auto;html=1;entryX=0.5;entryY=0;entryDx=0;entryDy=0;" parent="1" source="ej8Uj_g8A6SHDgE5CFZq-82" target="ej8Uj_g8A6SHDgE5CFZq-83" edge="1">
          <mxGeometry relative="1" as="geometry" />
        </mxCell>
        <mxCell id="ej8Uj_g8A6SHDgE5CFZq-87" style="edgeStyle=orthogonalEdgeStyle;rounded=0;orthogonalLoop=1;jettySize=auto;html=1;entryX=0.5;entryY=0;entryDx=0;entryDy=0;" parent="1" source="ej8Uj_g8A6SHDgE5CFZq-83" target="ej8Uj_g8A6SHDgE5CFZq-9" edge="1">
          <mxGeometry relative="1" as="geometry" />
        </mxCell>
        <mxCell id="ej8Uj_g8A6SHDgE5CFZq-92" style="edgeStyle=orthogonalEdgeStyle;rounded=0;orthogonalLoop=1;jettySize=auto;html=1;entryX=0.5;entryY=0;entryDx=0;entryDy=0;" parent="1" source="ej8Uj_g8A6SHDgE5CFZq-9" target="ej8Uj_g8A6SHDgE5CFZq-90" edge="1">
          <mxGeometry relative="1" as="geometry" />
        </mxCell>
        <mxCell id="ej8Uj_g8A6SHDgE5CFZq-93" style="edgeStyle=orthogonalEdgeStyle;rounded=0;orthogonalLoop=1;jettySize=auto;html=1;entryX=0.5;entryY=0;entryDx=0;entryDy=0;" parent="1" source="ej8Uj_g8A6SHDgE5CFZq-90" target="ej8Uj_g8A6SHDgE5CFZq-46" edge="1">
          <mxGeometry relative="1" as="geometry" />
        </mxCell>
        <mxCell id="ej8Uj_g8A6SHDgE5CFZq-57" value="" style="edgeStyle=orthogonalEdgeStyle;rounded=0;orthogonalLoop=1;jettySize=auto;html=1;entryX=0.5;entryY=0;entryDx=0;entryDy=0;" parent="1" source="ej8Uj_g8A6SHDgE5CFZq-46" target="ej8Uj_g8A6SHDgE5CFZq-50" edge="1">
          <mxGeometry relative="1" as="geometry">
            <mxPoint x="700" y="770" as="sourcePoint" />
            <mxPoint x="460" y="580" as="targetPoint" />
          </mxGeometry>
        </mxCell>
        <mxCell id="ej8Uj_g8A6SHDgE5CFZq-89" style="edgeStyle=orthogonalEdgeStyle;rounded=0;orthogonalLoop=1;jettySize=auto;html=1;entryX=0.5;entryY=0;entryDx=0;entryDy=0;" parent="1" source="ej8Uj_g8A6SHDgE5CFZq-55" target="ej8Uj_g8A6SHDgE5CFZq-58" edge="1">
          <mxGeometry relative="1" as="geometry">
            <mxPoint x="320" y="740" as="targetPoint" />
          </mxGeometry>
        </mxCell>
        <mxCell id="ej8Uj_g8A6SHDgE5CFZq-88" style="edgeStyle=orthogonalEdgeStyle;rounded=0;orthogonalLoop=1;jettySize=auto;html=1;entryX=0.5;entryY=0;entryDx=0;entryDy=0;" parent="1" source="ej8Uj_g8A6SHDgE5CFZq-52" target="ej8Uj_g8A6SHDgE5CFZq-28" edge="1">
          <mxGeometry relative="1" as="geometry">
            <mxPoint x="595" y="740" as="targetPoint" />
          </mxGeometry>
        </mxCell>
        <mxCell id="ej8Uj_g8A6SHDgE5CFZq-10" style="edgeStyle=orthogonalEdgeStyle;rounded=0;orthogonalLoop=1;jettySize=auto;html=1;entryX=0.5;entryY=0;entryDx=0;entryDy=0;" parent="1" source="ej8Uj_g8A6SHDgE5CFZq-11" target="ej8Uj_g8A6SHDgE5CFZq-96" edge="1">
          <mxGeometry relative="1" as="geometry" />
        </mxCell>
        <mxCell id="ej8Uj_g8A6SHDgE5CFZq-97" style="edgeStyle=orthogonalEdgeStyle;rounded=0;orthogonalLoop=1;jettySize=auto;html=1;entryX=0.5;entryY=0;entryDx=0;entryDy=0;" parent="1" source="ej8Uj_g8A6SHDgE5CFZq-96" target="ej8Uj_g8A6SHDgE5CFZq-13" edge="1">
          <mxGeometry relative="1" as="geometry" />
        </mxCell>
        <mxCell id="ej8Uj_g8A6SHDgE5CFZq-12" style="edgeStyle=orthogonalEdgeStyle;rounded=0;orthogonalLoop=1;jettySize=auto;html=1;entryX=0.5;entryY=0;entryDx=0;entryDy=0;" parent="1" source="ej8Uj_g8A6SHDgE5CFZq-13" target="ej8Uj_g8A6SHDgE5CFZq-15" edge="1">
          <mxGeometry relative="1" as="geometry" />
        </mxCell>
        <mxCell id="ej8Uj_g8A6SHDgE5CFZq-14" style="edgeStyle=orthogonalEdgeStyle;rounded=0;orthogonalLoop=1;jettySize=auto;html=1;" parent="1" source="ej8Uj_g8A6SHDgE5CFZq-15" target="ej8Uj_g8A6SHDgE5CFZq-31" edge="1">
          <mxGeometry relative="1" as="geometry" />
        </mxCell>
        <mxCell id="ej8Uj_g8A6SHDgE5CFZq-32" style="edgeStyle=orthogonalEdgeStyle;rounded=0;orthogonalLoop=1;jettySize=auto;html=1;entryX=0.5;entryY=0;entryDx=0;entryDy=0;" parent="1" source="ej8Uj_g8A6SHDgE5CFZq-33" target="ej8Uj_g8A6SHDgE5CFZq-38" edge="1">
          <mxGeometry relative="1" as="geometry" />
        </mxCell>
        <mxCell id="ej8Uj_g8A6SHDgE5CFZq-30" style="edgeStyle=orthogonalEdgeStyle;rounded=0;orthogonalLoop=1;jettySize=auto;html=1;" parent="1" source="ej8Uj_g8A6SHDgE5CFZq-31" target="ej8Uj_g8A6SHDgE5CFZq-33" edge="1">
          <mxGeometry relative="1" as="geometry" />
        </mxCell>
        <mxCell id="ej8Uj_g8A6SHDgE5CFZq-40" style="edgeStyle=orthogonalEdgeStyle;rounded=0;orthogonalLoop=1;jettySize=auto;html=1;entryX=0;entryY=0.5;entryDx=0;entryDy=0;" parent="1" source="ej8Uj_g8A6SHDgE5CFZq-41" target="ej8Uj_g8A6SHDgE5CFZq-44" edge="1">
          <mxGeometry relative="1" as="geometry" />
        </mxCell>
        <mxCell id="ej8Uj_g8A6SHDgE5CFZq-42" style="edgeStyle=orthogonalEdgeStyle;rounded=0;orthogonalLoop=1;jettySize=auto;html=1;entryX=1;entryY=0.5;entryDx=0;entryDy=0;" parent="1" source="ej8Uj_g8A6SHDgE5CFZq-43" target="ej8Uj_g8A6SHDgE5CFZq-44" edge="1">
          <mxGeometry relative="1" as="geometry" />
        </mxCell>
        <mxCell id="ej8Uj_g8A6SHDgE5CFZq-101" style="edgeStyle=orthogonalEdgeStyle;rounded=0;orthogonalLoop=1;jettySize=auto;html=1;entryX=0.5;entryY=0;entryDx=0;entryDy=0;" parent="1" source="ej8Uj_g8A6SHDgE5CFZq-44" target="ej8Uj_g8A6SHDgE5CFZq-95" edge="1">
          <mxGeometry relative="1" as="geometry" />
        </mxCell>
        <mxCell id="3fFahJsbEP7xA9LLXeHb-2" value="" style="ellipse;whiteSpace=wrap;html=1;aspect=fixed;strokeColor=#b85450;fillColor=#f8cecc;" vertex="1" parent="1">
          <mxGeometry x="330" y="1515" width="10" height="10" as="geometry" />
        </mxCell>
        <mxCell id="3fFahJsbEP7xA9LLXeHb-4" value="" style="ellipse;whiteSpace=wrap;html=1;aspect=fixed;strokeColor=#6c8ebf;fillColor=#dae8fc;" vertex="1" parent="1">
          <mxGeometry x="470" y="2215" width="10" height="10" as="geometry" />
        </mxCell>
      </root>
    </mxGraphModel>
  </diagram>
</mxfile>
